<?xml version="1.0" encoding="UTF-8"?>
<!DOCTYPE svg PUBLIC "-//W3C//DTD SVG 1.1//EN" "http://www.w3.org/Graphics/SVG/1.1/DTD/svg11.dtd">
<!-- Creator: CorelDRAW 2020 (64 Bit) -->
<svg xmlns="http://www.w3.org/2000/svg" xml:space="preserve" width="1014.2mm" height="705.556mm" version="1.1" style="shape-rendering:geometricPrecision; text-rendering:geometricPrecision; image-rendering:optimizeQuality; fill-rule:evenodd; clip-rule:evenodd"
viewBox="0 0 49824.4 34661.78"
 xmlns:xlink="http://www.w3.org/1999/xlink"
 xmlns:xodm="http://www.corel.com/coreldraw/odm/2003">
 <defs>
  <style type="text/css">
   <![CDATA[
    .fil17 {fill:#133742}
    .fil10 {fill:#13375B}
    .fil21 {fill:#184655}
    .fil4 {fill:#355389}
    .fil2 {fill:#3C8F7C}
    .fil8 {fill:#466EB6}
    .fil15 {fill:#50BFA5}
    .fil11 {fill:#5E5E5E}
    .fil20 {fill:#733021}
    .fil19 {fill:#AB4B37}
    .fil12 {fill:#B75742}
    .fil14 {fill:#D95A3F}
    .fil13 {fill:#EBB960}
    .fil16 {fill:#F08E76}
    .fil9 {fill:#F47458}
    .fil18 {fill:#F7947E}
    .fil6 {fill:#F7A491}
    .fil7 {fill:#F7CC7F}
    .fil3 {fill:#F8A492}
    .fil5 {fill:#FE875E}
    .fil1 {fill:#FFE1C7}
    .fil0 {fill:white}
   ]]>
  </style>
 </defs>
 <g id="Camada_x0020_1">
  <metadata id="CorelCorpID_0Corel-Layer"/>
  <g id="_2218258261584">
   <polygon class="fil0" points="-0,34661.78 49824.4,34661.78 49824.4,0 -0,0 "/>
   <path class="fil1" d="M5328.09 31367.18c-1823.65,-1016.46 -2441.32,-4543.47 -984.97,-8863.54 1075.95,-3191.66 -586.77,-6027.81 -463.1,-9770.43 363.68,-11006.03 21570.73,-13042.46 33241.88,-7393.31 10735.11,5196.13 11357.28,20004.79 7094.4,26027.27 -7114.85,0 -38888.21,0 -38888.21,0z"/>
   <path class="fil2" d="M3432.07 31348.11l42233.96 39.34c101.58,0 183.71,89.95 183.71,200.69l0 -0c0,110.92 -82.32,200.69 -184.05,200.69l-42233.9 -39.34c-101.53,-0.17 -183.79,-89.95 -183.79,-200.69l0 0c0,-110.92 82.44,-200.69 184.09,-200.69z"/>
   <path class="fil3" d="M28624.75 14473.87c467.93,75.84 440.19,152.27 500.5,160.34 71.06,9.58 915.77,-414.64 915.77,-414.64 0.01,-0 2498.25,-1233.04 2630.83,-1304.59l1803.29 -2268.7 1389.58 640.95c0,0 -2027.89,2412.01 -2156.31,2518.3 -128.24,106.23 -3710.37,1362.38 -4021.81,1483.53 0.01,-0 -314.04,287.07 -517.33,460.48 -203.28,173.39 -475.04,242.11 -539.85,281.61 -9.7,5.85 -233.8,124.17 -550.6,193.08 -272.95,59.38 -45.41,-126.03 -45.41,-126.03 0.01,0 482.84,-203.88 459.1,-240.75 -18.19,-28.39 -275.04,99.1 -576.25,168.04 -77.45,17.73 -153.9,34.97 -224.44,50.13 -184.74,40 -266.03,-65.79 -80.24,-139.5 65.52,-26.02 175.74,-66.44 258.58,-83.74 89.61,-18.71 164.82,-65.7 237.26,-93.31 144.03,-54.77 249.73,-92.83 244.02,-97.75 -7.44,-6.45 12.82,-38.25 -70.02,-22.08 -99.63,19.42 -300.69,109.11 -449.73,126.03 -84.58,9.51 -259.79,40.6 -259.79,40.6 0.01,0 -309.87,29.65 -311.96,-13.81 -4.66,-94.91 186.14,-147.99 303.29,-145.56 74.01,-37.65 259.27,-64.92 259.27,-64.92 0,0 359.44,-141.89 338.65,-195.1 -8.32,-21.25 -226,11.42 -457.02,27.23 -244.02,16.73 -420.79,16.65 -433.96,-30.57 -20.62,-75.03 173.65,-103.45 173.65,-103.45 0.01,0 171.4,-24.96 227.56,-37.76 65.69,-14.97 258.75,-75.46 258.75,-75.46 0.01,-0 661.17,-242.85 637.26,-291.62 -23.91,-48.82 -133.1,-150.97 -179.72,-150.7 -46.61,0.26 -129.98,46.78 -176.6,47.04 -46.61,0.27 -146.97,-8.72 -153.9,-67.4 -6.93,-58.63 251.81,-180.15 251.81,-180.15 0.01,-0 180.59,-71.65 315.79,-49.78z"/>
   <path class="fil4" d="M33220.19 12051.4c0,0 449.91,408.74 637.08,543.25 155.46,111.84 913.52,476.95 913.52,476.95 0,0 754.06,-1154.83 1083.87,-1733.91 400.18,-702.63 677.12,-1747.42 582.49,-1775.74 -265.33,-79.55 -630.49,-128.12 -967.76,26.64 -1166.87,535.57 -2249.2,2462.82 -2249.2,2462.81z"/>
   <path class="fil5" d="M29061.66 15077.39c-200.18,31.57 -404.86,-6.45 -493.6,-189.74 -19.92,217.37 309.53,325.23 493.6,189.74z"/>
   <path class="fil6" d="M40604.37 29773.77c0,0 49.91,884.23 50.26,885.95 18.37,112.3 90.47,389.6 90.47,491.68 0,383.36 -1700.85,-325.47 -1319.57,-495.31 34.49,-15.43 215.24,-131.71 226.51,-262.22 17.52,-201.04 61.87,-607.62 61.87,-607.62l890.46 -12.48z"/>
   <path class="fil7" d="M39409.24 30659.9c0,-0 399.29,117.33 603.79,146.62 204.51,29.28 474.17,-217.5 618.71,-150.95 159.29,73.48 153.04,734.13 153.04,734.13 0.01,0 -2141.41,188.04 -2743.48,-6.58 -238.47,-77.12 551.65,-450.09 1367.94,-723.22z"/>
   <path class="fil6" d="M43436.79 29799.94c0,0 49.87,884.05 50.22,885.95 18.22,112.13 90.47,389.6 90.47,491.51 0,383.36 -1700.68,-325.3 -1319.57,-495.15 34.51,-15.42 268.8,-218.54 280.24,-349.04 17.33,-201.04 8.15,-520.97 8.15,-520.97l890.5 -12.31z"/>
   <path class="fil7" d="M42262.08 30678.62c0,0 399.29,117.16 603.79,146.44 204.53,29.29 474.17,-217.5 618.89,-150.78 159.29,73.31 165.51,733.96 165.51,733.96 0.02,0 -2126.15,87.35 -2756.13,-6.41 -247.82,-36.91 551.64,-450.26 1367.94,-723.22z"/>
   <path class="fil4" d="M42932.28 15663.24c0,0 288.18,1491.46 170.68,2622.41 -117.3,1130.83 -126.51,5148.14 -126.51,5148.14l541.76 6425.6 -1157.16 26.86c0,-0 -1261.19,-6424.56 -1237.8,-6259.57 23.59,164.82 -422.7,-4523.71 -422.7,-4523.71l1503.47 -3581.11 728.26 141.38z"/>
   <path class="fil8" d="M42528.96 14700.03c0,0 1305.89,1375.41 820.1,2877.82 -194.94,603.46 -2014.89,6368.24 -2038.46,6839.46 -23.38,471.05 -615.42,5679.33 -615.42,5679.33l-1236.73 -37.26 -267.58 -5790.43 353.55 -7802.09 750.61 -1315.83 2233.93 -451z"/>
   <path class="fil9" d="M34601.13 10223.34c427.55,-477.06 1358.22,-1155.94 1358.22,-1155.94 0,-0.01 554.42,-473.55 780.41,-551.47 332.77,-114.73 902.42,-420.67 1726.68,828.33 589.78,893.84 4311.4,5522.05 4922.32,5677.87l-3989.39 1908.58c-109.36,-911.67 -2081.1,-2633.74 -2364.81,-2955.07 -634.12,-718.22 -2838.27,-3300.62 -2433.42,-3752.3z"/>
   <path class="fil6" d="M34787.09 8284.19l1242.79 727.52c0,0 34.83,1060.8 -371.41,1336.33 -340.89,231.19 -600.34,-323.65 -600.34,-323.65 0,-0 -462.04,-640.38 -812.99,-839.86 -351.12,-199.51 541.94,-900.32 541.95,-900.33z"/>
   <path class="fil9" d="M34995.57 8751.08c-46.79,221.3 -154.94,541.27 -322.53,804.84 -136.9,-148.13 -290.81,-293.48 -427.9,-371.4 -162.04,-92.08 -58.92,-290.88 98.96,-478.31 222.88,-232.16 442.98,-422.01 442.98,-422.01l238.83 139.82c15.42,90.6 -14.74,253.4 -30.34,327.06z"/>
   <path class="fil6" d="M34139.78 6460.88c20.96,-25.83 1042.44,1245.82 916.45,1842.25 -125.99,596.49 -743.5,1140.79 -1172.78,991.1 -474.67,-165.52 -1357.53,-1662.53 -1040.89,-2389.39 316.65,-726.88 1297.22,-443.95 1297.23,-443.96z"/>
   <path class="fil10" d="M33021.24 6059.76c445.41,-247.69 1171.73,-318.78 1714.53,-34.6 667.25,349.36 819.24,1228.52 610.4,1764.72 -208.84,536.25 30.33,839.4 30.33,839.4l-354.06 -206.78c0,0 -206.77,-322.73 -233.8,-579.96 -26.86,-257.27 -402.25,-211.7 -585.44,-328.35 -141.06,-89.81 -320.97,-381.75 -549.22,-533.2 0,-0.01 -574.69,-70.53 -857.36,88.09 -481.61,270.33 -413.17,-654.46 224.62,-1009.33z"/>
   <path class="fil6" d="M34490.38 7728.53c-3.3,190.78 86.82,346.93 201.38,348.81 114.57,1.87 210.05,-151.25 213.34,-341.99 3.3,-190.79 -86.83,-346.95 -201.39,-348.82 -114.54,-1.89 -210.05,151.23 -213.34,342z"/>
   <path class="fil11" d="M27504.65 15492.63l-1746.1 0c-93.76,0 -169.67,-76 -169.67,-169.75l0 -0c0,-93.74 75.9,-169.77 169.66,-169.77l1746.1 -0c93.76,0 169.83,76.03 169.83,169.78l0.01 -0c0,93.74 -76.09,169.76 -169.84,169.75z"/>
   <path class="fil11" d="M27504.65 17380.63l-1746.1 0c-93.76,0 -169.67,-75.96 -169.67,-169.7l0 -0c0,-93.76 75.9,-169.75 169.66,-169.75l1746.1 0c93.76,0 169.83,76 169.83,169.76l0.01 -0c0,93.74 -76.09,169.71 -169.84,169.7z"/>
   <polygon class="fil9" points="27758.02,17807.14 29099.43,17807.14 29099.43,14726.64 27758.02,14726.64 "/>
   <polygon class="fil12" points="29099.43,17807.14 30304.46,16701.63 30304.46,15832.14 29099.43,14726.64 "/>
   <path class="fil7" d="M32057.3 16528.23l-1752.84 160.99 0 -857.08 1752.84 160.99c41.26,3.79 72.95,38.51 72.95,80.09l0 374.92c0,41.59 -31.72,76.3 -72.96,80.09z"/>
   <polygon class="fil13" points="49824.4,16077.65 32130.26,16077.65 32130.26,16449.77 49824.4,16449.77 "/>
   <polygon class="fil13" points="31732.87,16558.04 31732.87,15963.32 31910.86,15979.7 31910.86,16541.67 "/>
   <polygon class="fil13" points="31331.14,15926.44 31509.29,15942.8 31509.29,16578.57 31331.14,16594.91 "/>
   <polygon class="fil13" points="30929.58,15889.56 31107.57,15905.92 31107.57,16615.44 30929.58,16631.8 "/>
   <polygon class="fil13" points="30528.01,15852.68 30706,15869.02 30706,16652.32 30528.01,16668.69 "/>
   <polygon class="fil12" points="27528.22,17938.33 27758.02,17807.14 27758.02,14726.64 27528.22,14595.44 "/>
   <polygon class="fil9" points="27081.08,17938.33 27528.22,17938.33 27528.22,14595.44 27081.08,14595.44 "/>
   <path class="fil14" d="M28228.04 16929.36l0 0c-48.17,0 -87.01,-38.92 -87.01,-86.94l0.01 -1151.05c0,-48.02 38.81,-86.93 86.99,-86.93l0 0c48,0 86.82,38.91 86.82,86.94l0 1151.04c0,48.02 -38.82,86.95 -86.82,86.94z"/>
   <path class="fil14" d="M28575.69 16929.36l0 0c-48,0 -86.83,-38.92 -86.83,-86.94l0.01 -1151.05c0,-48.02 38.81,-86.93 86.82,-86.93l0 0c48,0 86.99,38.91 86.99,86.94l0 1151.04c0,48.02 -39,86.95 -87,86.94z"/>
   <path class="fil14" d="M28923.53 16929.36l0 0c-48,0 -87.01,-38.92 -87.01,-86.94l0.01 -1151.05c0,-48.02 38.99,-86.93 86.99,-86.93l0 0c48,0 86.99,38.91 86.99,86.94l0 1151.04c0,48.02 -38.99,86.95 -86.99,86.94z"/>
   <path class="fil3" d="M32085.72 16785.69c135.53,-197.85 194.62,-483.53 381.96,-701.39 62.93,-73.2 162.91,-155.63 276.95,-237.83 901.22,-527.18 3248.33,-1886.15 3339.66,-1991.67 108.33,-124.97 1710.38,-2786.75 1710.38,-2786.75l-1438.8 -326.02 -1406.22 2482.98c-117.33,93.19 -2349.39,1742.87 -2349.39,1742.87 0.01,-0 -443.85,346.81 -686.48,509.09 -122.68,71.54 -241.42,117.85 -345.58,154.04 -130.84,45.54 -380.41,169.86 -430.84,214.25 -58.58,51.62 -175.91,161.92 -245.75,229.27 -69.66,67.29 -154.24,143.38 -187,183.41 -19.74,24.4 -81.45,58.02 -126.86,80.61 -67.41,33.64 -58.58,133.46 13.86,154.02 68.47,19.32 160.66,-23.52 217.85,-50.45 161.54,-75.94 359.1,-280.93 369.5,-255.87 10.4,25.05 -189.95,464.34 -209.71,516.06 -19.58,51.68 -249.91,563.52 -261.69,677.64 -11.78,114.2 57.02,140.55 108.14,98.78 44.03,-35.88 414.21,-719.37 414.21,-719.37 0,-0 47.31,-87.09 65.86,-37.26 18.37,49.8 -316.46,671.02 -349.22,772.92 -32.75,102.07 -6.59,185.61 87.7,149.91 114.57,-43.5 431.19,-728.62 431.19,-728.62 0,-0 41.24,-85.22 69.32,-55.57 28.26,29.7 -265.51,553.52 -268.8,613.83 -3.29,60.31 51.13,119.76 130.5,69.32 93.25,-59.27 370.71,-673.35 370.71,-673.35 0.01,0 34.32,-40.66 45.06,-12.1 10.75,28.52 -207.8,493.08 -191.5,560.85 13.7,57.01 64.82,45.58 64.82,45.58 114.39,-0.35 264.64,-481.32 400.18,-679.17z"/>
   <path class="fil4" d="M37400.75 12474.04c0,0 -468.63,-149.08 -769.15,-286.69 -201.37,-92.17 -1079.37,-529.1 -1079.37,-529.1 0,0 378.51,-1596.89 634.31,-2171.02 939.17,-2107.2 2006.57,-653.96 2151.28,-315.21 323.92,757.66 -937.08,3302.04 -937.08,3302.02z"/>
   <path class="fil6" d="M10674.67 30473.59c-26.41,-189.78 32.93,-516.28 181.09,-1027.03 -293.43,0.69 -540.16,-129.64 -840.03,-124.95 -81.9,480.24 -208.76,1268.96 -208.76,1268.96l-13.59 623.57 2088.11 15.77c0,0 -17.38,9.01 -633.01,-381.11 -45.5,-28.94 -548.28,-191.68 -573.81,-375.21z"/>
   <path class="fil6" d="M8048.81 30498.38c-26.41,-189.78 -71.34,-427.56 -5.48,-1060.48 -293.43,0.69 -572.68,-54.59 -872.56,-49.91 0,494.1 10.33,1227.37 10.33,1227.37l-13.58 623.39 2088.13 15.77c0,0 -17.39,9.01 -633.02,-381.11 -45.52,-28.77 -548.28,-191.68 -573.82,-375.04z"/>
   <path class="fil15" d="M7157.52 31399.06l2155.58 0c79.72,-7.28 99.15,-72.44 71.51,-112.65 -56.91,-82.84 -477.33,-281.63 -759.98,-413.52 -495.8,52.34 -1367.22,-152.34 -1445.47,-267.42 -135.98,381.46 -65.96,783.71 -21.65,793.58z"/>
   <path class="fil15" d="M9784.95 31374.45l2155.58 0c79.72,-7.28 99.16,-72.44 71.5,-112.65 -56.91,-82.84 -477.33,-281.63 -759.98,-413.52 -495.8,52.34 -1367.22,-152.33 -1445.47,-267.41 -135.96,381.45 -65.96,783.7 -21.64,793.58z"/>
   <path class="fil12" d="M10073.77 16969.45l-636.96 356.3 -1294.71 1985.37 2315.43 5465.47c0,0 -260.75,821.83 -345.73,1232.57 -88.9,429.63 -306.9,4117.3 -306.9,4117.3l987.8 16.64c0,-0 938.24,-3925.8 1097.13,-5199.96 192.97,-1547.31 -981.89,-5232.37 -981.89,-5232.37 -219.1,-751.82 -691.47,-2298.42 -691.47,-2298.42 0,-0 -115.56,-376.95 -142.72,-442.89z"/>
   <path class="fil9" d="M7980.15 16442.85c0,0 -149.29,319.56 -412.67,852.24 -160.57,324.7 -437.97,579.3 -636.58,977.22 -375.9,752.67 -555.2,1542.45 -347.33,2437.93 0,0 777.2,2976.24 746.35,4064.09 -11.38,401.04 -148.59,1123.73 -236.39,1612.29 -77.62,431.88 -50.35,3636.19 -50.35,3636.19l1049.54 20.28 844.69 -5255.42 630.32 -4659.23 701.99 -2613.68 -2289.59 -1071.92z"/>
   <path class="fil10" d="M12721.38 11510.74c511.07,-616.54 637.6,-1400.89 1132.38,-2035.93 183.01,-234.92 541.75,-510.64 806.72,-646.53 1178.19,-604.17 2304.75,291.14 2495.75,1536.31 101.89,664.22 86.79,1503.46 -105.22,2368.44 -185.43,1.06 -364.69,-2.67 -538.18,-10.59l-87.96 -561.94 -116.82 545.22c-1022.91,-98.17 -2088.51,-365.41 -2692.88,-654.63l109.57 -529.56 -318.24 424.36c-270.36,-143.46 -497.42,-292.77 -685.12,-435.16z"/>
   <path class="fil16" d="M13780.96 12984.82c0,0 2226.72,1367.91 2761.22,1573.39 418.17,160.74 2564.09,709.47 2642.08,730.75 78,21.26 904.67,-615.02 950.6,-492.68 45.93,122.35 -439.86,303.54 -363.43,431.68 76.26,128.18 1333.79,414.21 1283.01,495.28 -94.79,151.73 -776.08,-145.75 -807.1,-66.55 -31.02,79.21 739.51,245.28 735.87,395.96 -3.64,150.65 -715.07,-224.83 -768.1,-178.25 -53.2,46.59 622.18,441.82 499.82,534.25 -66.53,50.18 -592.02,-365.87 -625.47,-274.49 -33.27,91.36 319.58,471.26 237.44,521.71 -82.15,50.44 -253.03,-357.59 -504.16,-462.53 -251.12,-104.91 -379.03,-309.21 -826.51,-360.38 -447.48,-51.11 -2043.69,-48.28 -2887.4,-434.01 -843.66,-385.72 -2640.85,-1138.24 -2640.85,-1138.24l312.99 -1275.89z"/>
   <path class="fil17" d="M14306.05 14740.54c0,0 -1579.8,-661.42 -2002.5,-1036.44 -422.68,-374.99 -482.63,-1219 -62.82,-1494.39 419.83,-275.41 2656.48,1341.83 2656.48,1341.83l-591.15 1189z"/>
   <path class="fil6" d="M14430.92 11007.6c0,0 -257.04,-163.42 -268.72,-171.2 -11.67,-7.8 -163.57,180.87 -179.15,213.1 -15.58,32.23 -58.41,328.23 -23.36,343.79 35.05,15.58 225.38,112.84 243.15,93.43 17.78,-19.43 228.08,-479.11 228.08,-479.12z"/>
   <path class="fil6" d="M13165.14 11474.91c0,0 925.76,-137.86 1295.44,-531.6l330.92 817.31c0,0 -562.3,454.81 -613.52,746.32 -51.21,291.52 -86.36,1273.27 -86.36,1273.27l-493.56 -267.99c0,0 -565.41,-1238.12 -547.49,-1385.22 17.95,-147.11 114.56,-652.08 114.56,-652.09z"/>
   <path class="fil8" d="M13165.14 11474.91c0,0 -1046.01,-167.95 -2406.99,826.64 -1360.96,994.58 -3090.55,3815.67 -3652.66,5532.97 0,0 2483.06,422.53 3374.58,191.16 0.01,0 -101.79,-951.01 149.7,-1302.24 251.51,-351.23 372.8,-1041.65 1148.68,-1316.59 330.43,-117.09 700.41,-132.54 1049.92,-177.92 631.2,-81.91 1136.44,-563.36 1246.58,-1190.22l6.26 -35.63c29.32,-166.94 9.8,-338.78 -56.21,-494.88l-859.87 -2033.29z"/>
   <path class="fil9" d="M14498.49 12030.13c-112.79,-307.59 -97.25,-983.86 -97.25,-983.86l13.46 -58.25c16,-14.59 31.5,-29.37 45.88,-44.71l330.92 817.31c0,0 -144.07,116.6 -293.01,269.51z"/>
   <path class="fil6" d="M15505.61 9252.34c0,-0.02 -484.7,-56.12 -788.55,337.74 -303.83,393.85 -631.31,1611.84 123.45,2274.06 754.77,662.18 1500.53,-87.38 1611.1,-882.12 110.57,-794.76 153.55,-1758.36 -946,-1729.68z"/>
   <path class="fil6" d="M16674.91 10970.26c-90.09,175.51 -241.33,272.73 -337.77,217.1 -96.44,-55.67 -101.61,-243.03 -11.53,-418.58 90.09,-175.53 241.32,-272.72 337.76,-217.1 96.46,55.63 101.61,243.05 11.54,418.58z"/>
   <path class="fil10" d="M15559.83 9122.14c0,0 -647.57,1158.27 -1110.82,1211.76 -463.25,53.51 -524.09,669 -524.09,669 0,-0.02 165.63,-1418.19 624.26,-1691.67 458.62,-273.49 1010.65,-189.08 1010.65,-189.09z"/>
   <path class="fil6" d="M14570.5 10624.95c37.66,205.69 -38.12,394.33 -169.26,421.33 -131.13,26.97 -267.99,-117.88 -305.66,-323.57 -37.67,-205.7 38.09,-394.31 169.22,-421.31 131.16,-26.99 268.02,117.87 305.71,323.55z"/>
   <path class="fil10" d="M13384.16 10298.15c304.21,-585.83 445.47,-381.59 426.76,-300.75 -18.7,80.83 -91.39,874.1 -70.62,872.13 20.79,-2 448.3,-195.72 448.3,-195.72l14.25 286.13c0,0 -221.51,696.26 -108.37,1158.71 0.01,-0.01 -436.32,11.94 -864.9,-199.38l27.82 -361.12 -221.8 248.13c-113.33,-77.7 -221.1,-174.5 -314.22,-295.52 0,-0.02 358.59,-626.78 662.79,-1212.61z"/>
   <polygon class="fil13" points="18661.91,16680.56 -0,16680.56 -0,17052.67 18661.91,17052.67 "/>
   <path class="fil12" d="M22088.39 19211.98l-3471.03 0c-200.87,0 -363.61,-162.74 -363.61,-363.6l0 -3963.56c0,-200.81 162.73,-363.6 363.6,-363.6l3471.03 -0c200.86,0 363.6,162.79 363.6,363.61l0 3963.56c0,200.86 -162.74,363.6 -363.6,363.6z"/>
   <path class="fil9" d="M23734.66 19211.98l-3471.21 0c-200.86,0 -363.61,-162.74 -363.61,-363.6l0 -3963.56c0,-200.81 162.73,-363.6 363.6,-363.6l3471.22 -0c200.69,0 363.59,162.79 363.59,363.61l0.01 3963.56c0,200.86 -162.93,363.6 -363.61,363.6z"/>
   <path class="fil18" d="M23435.36 16866.61c0,977.61 -624.79,1769.99 -1395.5,1769.99 -770.53,-0.01 -1395.31,-792.37 -1395.31,-1769.99 0.01,-977.57 624.78,-1770.02 1395.31,-1770.02 770.71,0 1395.48,792.46 1395.5,1770.02z"/>
   <path class="fil19" d="M22039.87 15096.59c-46.62,0 -92.72,3.02 -138.3,8.72 705.73,88.15 1257.01,842.99 1257.01,1761.3 0,918.34 -551.3,1673.11 -1257.01,1761.32 45.59,5.71 91.68,8.67 138.3,8.67 770.71,-0.01 1395.48,-792.37 1395.48,-1769.99 0.01,-977.57 -624.78,-1770.02 -1395.48,-1770.02z"/>
   <path class="fil19" d="M22209.71 15922.59c0,93.74 -76.09,169.76 -169.85,169.76 -93.58,0 -169.66,-76.01 -169.66,-169.76 0,-93.75 76.08,-169.77 169.66,-169.77 93.76,-0 169.85,76.03 169.85,169.77z"/>
   <path class="fil19" d="M22209.71 17810.61c0,93.75 -76.09,169.84 -169.85,169.84 -93.58,0 -169.66,-76.08 -169.66,-169.84 0,-93.76 76.08,-169.67 169.66,-169.67 93.76,-0 169.85,75.91 169.85,169.67z"/>
   <path class="fil20" d="M21955.13 15776.37c-50.62,29.41 -84.94,83.56 -84.94,146.23 0,62.67 34.32,116.79 84.92,146.21 50.43,-29.41 84.74,-83.54 84.74,-146.21 0,-62.67 -34.32,-116.81 -84.73,-146.23z"/>
   <path class="fil20" d="M21955.13 17664.51c-50.62,29.28 -84.94,83.54 -84.94,146.1 0,62.73 34.32,116.81 84.92,146.27 50.43,-29.46 84.74,-83.53 84.74,-146.27 0,-62.57 -34.32,-116.81 -84.73,-146.1z"/>
   <path class="fil6" d="M13679.47 13565.93c0,0 1934.5,1811.91 2423.82,2124.73 382.82,244.72 2403.67,1226.23 2476.81,1263.25 72.97,36.91 1023.91,-427.22 1044.71,-296.34 20.8,130.92 -498.79,212.2 -448.87,355.06 49.75,142.88 1241.06,682.73 1174.17,752.92 -125.13,131.54 -741.59,-302.59 -788.56,-230.15 -46.79,72.43 685.09,394.11 650.77,542.98 -34.31,149.04 -664.81,-368.8 -727.03,-333.27 -62.21,35.52 528.42,565.5 388.04,632.58 -76.25,36.22 -513.86,-484.05 -565.51,-400 -51.64,84.06 221.67,533.27 129.81,566.72 -92.02,33.45 -178.86,-406.76 -407.11,-562.04 -228.07,-155.29 -313.69,-384.4 -747.82,-526.16 -434.31,-141.74 -2021.01,-463.41 -2780.92,-1018.22 -759.91,-554.79 -2392.68,-1667.85 -2392.68,-1667.85l570.36 -1204.18z"/>
   <path class="fil21" d="M14527.1 14125.62l-1017.25 1135.85c0,0 -1090.21,-770.32 -1524.34,-1214.55 -959.59,-981.94 -369.16,-2323.85 571.43,-1716.73 692.8,447.14 1970.16,1795.43 1970.16,1795.42z"/>
  </g>
 </g>
</svg>
