<?xml version="1.0" encoding="UTF-8"?>
<!DOCTYPE svg PUBLIC "-//W3C//DTD SVG 1.1//EN" "http://www.w3.org/Graphics/SVG/1.1/DTD/svg11.dtd">
<!-- Creator: CorelDRAW 2020 (64 Bit) -->
<svg xmlns="http://www.w3.org/2000/svg" xml:space="preserve" width="91.7639mm" height="91.7639mm" version="1.1" style="shape-rendering:geometricPrecision; text-rendering:geometricPrecision; image-rendering:optimizeQuality; fill-rule:evenodd; clip-rule:evenodd"
viewBox="0 0 384.05 384.05"
 xmlns:xlink="http://www.w3.org/1999/xlink"
 xmlns:xodm="http://www.corel.com/coreldraw/odm/2003">
 <defs>
  <style type="text/css">
   <![CDATA[
    .str0 {stroke:#E2711D;stroke-width:7.38;stroke-miterlimit:22.9256}
    .fil0 {fill:#E2711D}
   ]]>
  </style>
 </defs>
 <g id="Camada_x0020_1">
  <metadata id="CorelCorpID_0Corel-Layer"/>
  <path class="fil0 str0" d="M288.19 96.08c-0.95,-0.95 -2.5,-0.95 -3.46,0l-74.96 74.96c1.28,1.01 2.43,2.19 3.41,3.5l75 -75.01c0.95,-0.95 0.95,-2.5 0,-3.46z"/>
  <path class="fil0 str0" d="M173.59 206.93l-80.78 80.78c-1.03,1.03 -1.03,2.71 0,3.74 0.52,0.51 1.19,0.77 1.87,0.77 0.68,-0 1.35,-0.26 1.87,-0.77l80.82 -80.83c-1.42,-1.06 -2.69,-2.3 -3.79,-3.69z"/>
  <path class="fil0 str0" d="M291.26 284.4l-77.94 -77.94c-1.02,1.36 -2.21,2.58 -3.55,3.64l77.9 77.9c0.5,0.49 1.15,0.74 1.8,0.74 0.65,0 1.3,-0.25 1.8,-0.74 0.99,-0.99 0.99,-2.6 0,-3.59z"/>
  <path class="fil0 str0" d="M177.38 170.57l-76.23 -76.23c-0.97,-0.97 -2.55,-0.97 -3.53,0 -0.97,0.97 -0.97,2.55 0,3.53l76.18 76.18c1.03,-1.31 2.24,-2.48 3.57,-3.48z"/>
  <path class="fil0 str0" d="M192.03 52.2c-78.09,0 -141.4,63.3 -141.4,141.39 0,78.09 63.3,141.4 141.4,141.4 41.25,0 78.36,-17.67 104.21,-45.84l-4.07 -4.07c-24.83,27.16 -60.53,44.23 -100.14,44.23 -74.83,0 -135.71,-60.89 -135.71,-135.71 0,-74.83 60.88,-135.71 135.71,-135.71l0 -0c37.95,0 72.3,15.66 96.95,40.85l4.06 -4.06c-25.66,-26.21 -61.44,-42.47 -101.01,-42.47l0 0z"/>
  <path class="fil0 str0" d="M192.03 160.26c-18.38,0 -33.34,14.96 -33.34,33.34 0,18.38 14.96,33.34 33.34,33.34 18.38,-0 33.33,-14.96 33.33,-33.34 0,-18.38 -14.95,-33.34 -33.33,-33.34zm0 69.52c-19.95,0 -36.18,-16.23 -36.18,-36.18 0,-19.95 16.23,-36.18 36.18,-36.18 19.95,0 36.18,16.23 36.18,36.18 0,19.95 -16.23,36.18 -36.18,36.18z"/>
  <path class="fil0 str0" d="M192.03 126.47c-37.02,0 -67.13,30.12 -67.13,67.13 0,37.02 30.11,67.13 67.13,67.13 37.01,0 67.13,-30.11 67.13,-67.13 0,-37.02 -30.12,-67.13 -67.13,-67.13zm0 137.1c-38.59,0 -69.98,-31.39 -69.98,-69.97 0,-38.58 31.39,-69.97 69.97,-69.97 38.58,0 69.98,31.39 69.98,69.97 0,38.59 -31.39,69.97 -69.97,69.97z"/>
  <path class="fil0 str0" d="M376.98 195.16l-369.91 0c-1.87,0 -3.38,-1.4 -3.38,-3.14 0,-1.73 1.51,-3.14 3.38,-3.14l369.91 0c1.86,0 3.38,1.4 3.38,3.14 0,1.73 -1.52,3.14 -3.38,3.14z"/>
  <path class="fil0 str0" d="M195.17 7.07l0 369.91c0,1.87 -1.4,3.38 -3.14,3.38 -1.73,0 -3.14,-1.51 -3.14,-3.38l0 -369.91c0,-1.86 1.4,-3.38 3.14,-3.38 1.73,-0 3.14,1.52 3.14,3.38z"/>
 </g>
</svg>
